<?xml version="1.0" encoding="UTF-8" standalone="no"?>
<!-- Created with Inkscape (http://www.inkscape.org/) -->

<svg
   xmlns:dc="http://purl.org/dc/elements/1.1/"
   xmlns:cc="http://creativecommons.org/ns#"
   xmlns:rdf="http://www.w3.org/1999/02/22-rdf-syntax-ns#"
   xmlns:svg="http://www.w3.org/2000/svg"
   xmlns="http://www.w3.org/2000/svg"
   xmlns:sodipodi="http://sodipodi.sourceforge.net/DTD/sodipodi-0.dtd"
   xmlns:inkscape="http://www.inkscape.org/namespaces/inkscape"
   width="67.733337mm"
   height="67.733337mm"
   viewBox="0 0 67.733337 67.733337"
   version="1.1"
   id="svg4618"
   inkscape:version="0.92.4 (f8dce91, 2019-08-02)"
   sodipodi:docname="default-task.svg">
  <defs
     id="defs4612" />
  <sodipodi:namedview
     id="base"
     pagecolor="#ffffff"
     bordercolor="#666666"
     borderopacity="1.0"
     inkscape:pageopacity="0.0"
     inkscape:pageshadow="2"
     inkscape:zoom="1.4"
     inkscape:cx="24.49842"
     inkscape:cy="-33.542658"
     inkscape:document-units="mm"
     inkscape:current-layer="layer1"
     showgrid="false"
     fit-margin-top="0"
     fit-margin-left="0"
     fit-margin-right="0"
     fit-margin-bottom="0"
     inkscape:pagecheckerboard="true"
     inkscape:window-width="1853"
     inkscape:window-height="1025"
     inkscape:window-x="67"
     inkscape:window-y="27"
     inkscape:window-maximized="1" />
  <metadata
     id="metadata4615">
    <rdf:RDF>
      <cc:Work
         rdf:about="">
        <dc:format>image/svg+xml</dc:format>
        <dc:type
           rdf:resource="http://purl.org/dc/dcmitype/StillImage" />
        <dc:title></dc:title>
      </cc:Work>
    </rdf:RDF>
  </metadata>
  <g
     inkscape:label="Capa 1"
     inkscape:groupmode="layer"
     id="layer1"
     transform="translate(-18.92455,22.491217)">
    <circle
       style="display:inline;fill:none;fill-opacity:1;stroke:#ffffff;stroke-width:2.09204578;stroke-linecap:butt;stroke-linejoin:round;stroke-miterlimit:4;stroke-dasharray:none;stroke-opacity:0.6;paint-order:fill markers stroke"
       id="path993"
       cx="52.791218"
       cy="11.375452"
       r="32.820644" />
    <path
       id="path863-7"
       style="fill:none;stroke:#ffffff;stroke-width:1.85208333;stroke-linecap:round;stroke-linejoin:round;stroke-miterlimit:4;stroke-dasharray:none;stroke-opacity:0.6"
       d="m 67.592589,14.463712 3.734362,3.878841 m 6.980849,-7.761607 -6.980849,7.761607"
       inkscape:connector-curvature="0" />
    <path
       id="rect836-1-1"
       style="fill:none;fill-opacity:0.6;stroke:#ffffff;stroke-width:1.05833333;stroke-miterlimit:4;stroke-dasharray:none;stroke-opacity:0.6"
       d="M 30.463179,1.2369059 H 62.199676 V 7.544451 H 30.463179 Z m 27.831146,6.3898312 h 3.987633 v 3.9876319 h -3.987633 z m -3.987634,0 h 3.987632 v 3.9876319 h -3.987632 z m -3.987637,0 h 3.987631 v 3.9876319 h -3.987631 z m -3.987629,0 h 3.987633 v 3.9876319 h -3.987633 z m -3.98763,0 h 3.987631 v 3.9876319 h -3.987631 z m -3.987631,0 h 3.987632 v 3.9876319 h -3.987632 z m -3.987634,0 h 3.987632 V 11.614369 H 34.36853 Z m -3.987631,0 h 3.98763 v 3.9876319 h -3.98763 z M 58.294325,19.589631 h 3.987633 v 3.987633 h -3.987633 z m -3.987629,0 h 3.987629 v 3.987633 h -3.987629 z m -3.987632,0 h 3.987633 v 3.987633 h -3.987633 z m -3.98763,0 h 3.987631 v 3.987633 h -3.987631 z m -3.987635,0 h 3.987632 v 3.987633 h -3.987632 z m -3.987631,0 H 42.3438 v 3.987633 h -3.987632 z m -3.98763,0 h 3.987631 v 3.987633 h -3.987631 z m -3.987633,0 h 3.987633 v 3.987633 H 30.380905 Z M 58.294325,15.602 h 3.987633 v 3.987631 h -3.987633 z m -3.987629,0 h 3.987629 v 3.987631 h -3.987629 z m -3.987636,0 h 3.987631 v 3.987631 H 50.31906 Z m -3.987626,0 h 3.987631 v 3.987631 h -3.987631 z m -3.987639,0 h 3.987631 v 3.987631 h -3.987631 z m -3.987627,0 H 42.3438 v 3.987631 h -3.987632 z m -3.987636,0 h 3.987634 v 3.987631 h -3.987634 z m -3.98763,0 h 3.98763 v 3.987631 h -3.98763 z m 27.913423,-3.98763 h 3.987633 v 3.987632 h -3.987633 z m -3.987634,0 h 3.987632 v 3.987632 h -3.987632 z m -3.987631,0 h 3.987631 v 3.987632 H 50.31906 Z m -3.987635,0 h 3.987633 v 3.987632 h -3.987633 z m -3.98763,0 h 3.987631 v 3.987632 h -3.987631 z m -3.987631,0 h 3.987632 v 3.987632 h -3.987632 z m -3.987632,0 h 3.987634 v 3.987632 h -3.987634 z m -3.98763,0 h 3.98763 v 3.987632 h -3.98763 z"
       inkscape:connector-curvature="0" />
  </g>
</svg>
