<?xml version="1.0" encoding="UTF-8" standalone="no"?>
<!-- Created with Inkscape (http://www.inkscape.org/) -->

<svg
   xmlns:dc="http://purl.org/dc/elements/1.1/"
   xmlns:cc="http://creativecommons.org/ns#"
   xmlns:rdf="http://www.w3.org/1999/02/22-rdf-syntax-ns#"
   xmlns:svg="http://www.w3.org/2000/svg"
   xmlns="http://www.w3.org/2000/svg"
   xmlns:sodipodi="http://sodipodi.sourceforge.net/DTD/sodipodi-0.dtd"
   xmlns:inkscape="http://www.inkscape.org/namespaces/inkscape"
   width="67.73333mm"
   height="67.733337mm"
   viewBox="0 0 67.73333 67.733337"
   version="1.1"
   id="svg8"
   inkscape:version="0.92.4 (f8dce91, 2019-08-02)"
   sodipodi:docname="3hclogo.svg">
  <defs
     id="defs2" />
  <sodipodi:namedview
     id="base"
     pagecolor="#ffffff"
     bordercolor="#666666"
     borderopacity="1.0"
     inkscape:pageopacity="0"
     inkscape:pageshadow="2"
     inkscape:zoom="0.5"
     inkscape:cx="-50.992136"
     inkscape:cy="-49.702042"
     inkscape:document-units="mm"
     inkscape:current-layer="layer1"
     showgrid="false"
     inkscape:window-width="1853"
     inkscape:window-height="1025"
     inkscape:window-x="67"
     inkscape:window-y="27"
     inkscape:window-maximized="1"
     fit-margin-top="0"
     fit-margin-left="0"
     fit-margin-right="0"
     fit-margin-bottom="0"
     inkscape:pagecheckerboard="false" />
  <metadata
     id="metadata5">
    <rdf:RDF>
      <cc:Work
         rdf:about="">
        <dc:format>image/svg+xml</dc:format>
        <dc:type
           rdf:resource="http://purl.org/dc/dcmitype/StillImage" />
        <dc:title></dc:title>
      </cc:Work>
    </rdf:RDF>
  </metadata>
  <g
     inkscape:label="Capa 1"
     inkscape:groupmode="layer"
     id="layer1"
     transform="translate(-71.133335,-114.63333)">
    <g
       id="g843"
       transform="matrix(0.54367554,0,0,0.54367554,38.259042,71.829176)">
      <path
         inkscape:export-filename="C:\Users\ernes\OneDrive\Documents\3hc\proyectos\ciworkshop\3hc_logo_white.png"
         inkscape:export-ydpi="720"
         inkscape:export-xdpi="720"
         id="path859-2"
         d="m 83.984273,78.73107 -2.01954,1.83789 -2.01757,1.83593 2.22265,6.14649 c 1.20533,3.33509 2.51634,6.9569 2.91406,8.04883 1.44484,3.96666 2.368,6.52274 2.92969,8.12304 0.28085,0.80016 0.47213,1.36012 0.5918,1.73828 0.0598,0.18908 0.10229,0.33265 0.12891,0.43555 0.0266,0.1029 0.0352,0.1718 0.0352,0.17969 0,-0.009 -0.003,0.0228 -0.0176,0.0645 -0.0144,0.0417 -0.0383,0.0995 -0.0684,0.16602 -0.0602,0.13301 -0.14944,0.30755 -0.25977,0.50976 -0.22066,0.40442 -0.52502,0.91872 -0.86133,1.44141 -1.97127,3.06378 -2.33065,3.65034 -3.60156,5.89258 -1.47792,2.60744 -2.44331,4.86439 -3.34766,7.82422 -0.59483,1.9468 -0.69276,2.7741 -0.69726,5.85937 -0.005,3.16605 0.0816,3.86237 0.71875,5.85938 1.30478,4.08959 3.44033,7.58966 6.86133,11.24609 3.80468,4.06654 9.47583,8.42109 15.230457,11.69727 l 0.0312,0.0176 c 0.5686,0.32355 1.09621,0.62128 1.48438,0.83594 0.19817,0.10959 0.36198,0.19773 0.47852,0.25977 0.0583,0.031 0.10405,0.055 0.13867,0.0723 0.0173,0.009 0.0322,0.0158 0.0449,0.0215 0.006,0.003 0.0119,0.005 0.0195,0.008 0.004,10e-4 0.007,0.004 0.0137,0.006 0.003,8e-4 0.009,0.001 0.0137,0.002 0.005,0.001 0.0192,0.002 0.0195,0.002 2.9e-4,1e-5 0.0739,-0.0194 0.0742,-0.0195 2.9e-4,-1.7e-4 0.0349,-0.0289 0.0352,-0.0293 2.9e-4,-2.6e-4 0.0104,-0.0174 0.0137,-0.0234 0.003,-0.006 0.006,-0.0113 0.008,-0.0156 0.007,-0.0172 0.008,-0.0254 0.01,-0.0352 0.004,-0.0195 0.006,-0.0387 0.008,-0.0625 0.005,-0.0476 0.01,-0.11199 0.0137,-0.19532 0.008,-0.16665 0.0141,-0.40498 0.0195,-0.69921 0.0109,-0.58846 0.0171,-1.39898 0.0156,-2.29102 l -0.006,-3.31247 -3.18946,-2.07031 c -8.169757,-5.30318 -13.484437,-10.98344 -15.361317,-16.37524 -0.62682,-1.80067 -0.74506,-2.55629 -0.74805,-4.72852 -0.002,-1.52563 0.171,-3.26483 0.41211,-4.19531 0.79118,-3.05328 2.98294,-7.25617 7.25195,-13.875 0.89262,-1.38395 1.36537,-2.29062 1.43164,-3.31836 0.0663,-1.02774 -0.27187,-2.14647 -0.95703,-3.96484 -1.94549,-5.1632 -3.42305,-9.18362 -4.38672,-11.93946 -0.48183,-1.37791 -0.83519,-2.44064 -1.05469,-3.16797 -0.10974,-0.36366 -0.18512,-0.64483 -0.22656,-0.83593 -0.0128,-0.0591 -0.0173,-0.092 -0.0234,-0.13281 0.003,9.8e-4 0.003,9.5e-4 0.006,0.002 0.10916,0.0419 0.26937,0.10978 0.47461,0.19922 0.41047,0.17887 0.99833,0.44595 1.71875,0.78125 1.44084,0.6706 3.41259,1.61273 5.56641,2.66406 2.15472,1.05177 4.173707,2.02773 5.691397,2.75195 0.75885,0.36211 1.39279,0.66207 1.85547,0.87696 0.23134,0.10744 0.4198,0.19315 0.56055,0.25585 0.14074,0.0627 0.22487,0.0993 0.28125,0.11719 0.13339,0.0423 0.26048,0.087 0.39648,0.0273 0.068,-0.0298 0.12206,-0.0876 0.15821,-0.15625 0.0362,-0.0686 0.0594,-0.14841 0.0781,-0.25 0.075,-0.40637 0.0762,-1.16736 0.0762,-2.65235 v -3.15821 l -6.359377,-3.0918 c -3.45633,-1.68063 -7.53343,-3.65331 -9.0625,-4.38281 -1.52724,-0.72863 -3.43267,-1.65517 -4.23047,-2.05664 z"
         style="color:#000000;font-style:normal;font-variant:normal;font-weight:normal;font-stretch:normal;font-size:medium;line-height:normal;font-family:sans-serif;font-variant-ligatures:normal;font-variant-position:normal;font-variant-caps:normal;font-variant-numeric:normal;font-variant-alternates:normal;font-feature-settings:normal;text-indent:0;text-align:start;text-decoration:none;text-decoration-line:none;text-decoration-style:solid;text-decoration-color:#000000;letter-spacing:normal;word-spacing:normal;text-transform:none;writing-mode:lr-tb;direction:ltr;text-orientation:mixed;dominant-baseline:auto;baseline-shift:baseline;text-anchor:start;white-space:normal;shape-padding:0;clip-rule:nonzero;display:inline;overflow:visible;visibility:visible;opacity:1;isolation:auto;mix-blend-mode:normal;color-interpolation:sRGB;color-interpolation-filters:linearRGB;solid-color:#000000;solid-opacity:1;vector-effect:none;fill:#ffffff;fill-opacity:1;fill-rule:nonzero;stroke:none;stroke-width:0.26458338;stroke-linecap:butt;stroke-linejoin:miter;stroke-miterlimit:4;stroke-dasharray:none;stroke-dashoffset:0;stroke-opacity:1;color-rendering:auto;image-rendering:auto;shape-rendering:auto;text-rendering:auto;enable-background:accumulate"
         inkscape:connector-curvature="0"
         sodipodi:nodetypes="ccccccccccccscsccccccccccccccccccscccccscsscsccccccsssccccccsccccc" />
      <path
         inkscape:export-filename="C:\Users\ernes\OneDrive\Documents\3hc\proyectos\ciworkshop\3hc_logo_white.png"
         inkscape:export-ydpi="720"
         inkscape:export-xdpi="720"
         id="path857-2"
         d="m 156.68935,78.9713 c -0.0882,-0.003 -0.1672,0.0246 -0.30468,0.0723 -0.13749,0.0477 -0.3226,0.12061 -0.57032,0.22656 -0.49542,0.21191 -1.24226,0.55427 -2.34179,1.07422 -2.19908,1.03991 -5.81143,2.79237 -11.64649,5.64062 l -6.49024,3.16797 v 3.22852 c 0,0.86743 0.0223,1.64271 0.0586,2.19726 0.0181,0.27727 0.0394,0.49969 0.0644,0.6543 0.0125,0.0773 0.0259,0.1361 0.0449,0.1875 0.009,0.0257 0.0171,0.0504 0.0469,0.082 0.0149,0.0158 0.0382,0.034 0.0742,0.043 0.0361,0.009 0.0803,0.002 0.10742,-0.0137 0.0137,-0.008 0.12461,-0.0636 0.28906,-0.14453 0.16446,-0.0809 0.39053,-0.19129 0.66016,-0.32227 0.53926,-0.26197 1.2557,-0.60766 2.01953,-0.97461 1.52838,-0.73424 5.26626,-2.54123 8.30664,-4.01367 1.51923,-0.73575 2.91383,-1.38861 3.9375,-1.84961 0.51184,-0.2305 0.93125,-0.41386 1.22462,-0.5332 0.12574,-0.0512 0.21558,-0.0849 0.29102,-0.11133 -0.005,0.0232 -0.005,0.0364 -0.0117,0.0645 -0.0337,0.14816 -0.0921,0.35863 -0.16993,0.61524 -0.15559,0.51321 -0.3896,1.2067 -0.66211,1.95312 -0.54662,1.49715 -1.26647,3.4964 -1.60156,4.44336 -0.33426,0.9446 -0.98386,2.73062 -1.44141,3.9668 -1.40319,3.79052 -2.139,5.80205 -2.50977,7.01757 -0.37076,1.21553 -0.37312,1.6582 -0.29882,2.23438 0.11209,0.86936 0.80804,2.1731 2.53906,4.84961 4.92441,7.61412 6.61133,11.74014 6.61133,16.12305 0,7.33393 -6.05365,15.0303 -17.50977,22.15429 l -2.07031,1.28906 v 3.25586 c 0,0.87776 0.0242,1.67439 0.0645,2.25586 0.0202,0.29074 0.0447,0.52812 0.0723,0.69727 0.0138,0.0846 0.0282,0.15159 0.0469,0.20703 0.009,0.0277 0.0182,0.0522 0.0371,0.0801 0.0189,0.0279 0.0602,0.0742 0.13281,0.0742 0.0762,0 0.10041,-0.0202 0.15821,-0.0449 0.0578,-0.0247 0.13059,-0.0595 0.21679,-0.10352 0.1724,-0.088 0.40207,-0.2128 0.67774,-0.36914 0.55133,-0.31267 1.28379,-0.74648 2.08789,-1.23438 1.6082,-0.97579 3.49956,-2.16701 4.7832,-3.0332 8.85941,-5.97827 14.82224,-13.13568 16.61719,-19.99219 1.92499,-7.3532 0.006,-14.03776 -7.11914,-24.90429 -0.58868,-0.89783 -0.90881,-1.48757 -1.02344,-1.98438 -0.11463,-0.4968 -0.0361,-0.91288 0.20117,-1.51562 0.49322,-1.25276 1.76852,-4.72651 3.67578,-10.00782 0.9984,-2.76461 2.19314,-6.03987 2.65235,-7.27539 0.46017,-1.23808 1.12432,-3.08162 1.47851,-4.0996 l 0.67188,-1.92969 -1.85547,-1.70508 c -0.49504,-0.45486 -0.98361,-0.86831 -1.375,-1.17187 -0.1957,-0.15178 -0.36612,-0.2767 -0.50391,-0.36524 -0.0689,-0.0443 -0.12998,-0.0791 -0.18359,-0.10546 -0.0536,-0.0263 -0.0934,-0.0484 -0.1582,-0.0508 z"
         style="color:#000000;font-style:normal;font-variant:normal;font-weight:normal;font-stretch:normal;font-size:medium;line-height:normal;font-family:sans-serif;font-variant-ligatures:normal;font-variant-position:normal;font-variant-caps:normal;font-variant-numeric:normal;font-variant-alternates:normal;font-feature-settings:normal;text-indent:0;text-align:start;text-decoration:none;text-decoration-line:none;text-decoration-style:solid;text-decoration-color:#000000;letter-spacing:normal;word-spacing:normal;text-transform:none;writing-mode:lr-tb;direction:ltr;text-orientation:mixed;dominant-baseline:auto;baseline-shift:baseline;text-anchor:start;white-space:normal;shape-padding:0;clip-rule:nonzero;display:inline;overflow:visible;visibility:visible;opacity:1;isolation:auto;mix-blend-mode:normal;color-interpolation:sRGB;color-interpolation-filters:linearRGB;solid-color:#000000;solid-opacity:1;vector-effect:none;fill:#ffffff;fill-opacity:1;fill-rule:nonzero;stroke:none;stroke-width:0.26458338;stroke-linecap:butt;stroke-linejoin:miter;stroke-miterlimit:4;stroke-dasharray:none;stroke-dashoffset:0;stroke-opacity:1;color-rendering:auto;image-rendering:auto;shape-rendering:auto;text-rendering:auto;enable-background:accumulate"
         inkscape:connector-curvature="0"
         sodipodi:nodetypes="ccccccscccscccccccccccccccccsccscccssscccscccccccccccccc" />
      <path
         inkscape:export-filename="C:\Users\ernes\OneDrive\Documents\3hc\proyectos\ciworkshop\3hc_logo_white.png"
         inkscape:export-ydpi="720"
         inkscape:export-xdpi="720"
         sodipodi:nodetypes="ccccscccccccscccccccsccccccccccccsccccccccccsccccsccccsccsccc"
         id="path851-5"
         d="m 89.892473,171.36192 -7.85547,0.0703 -0.0977,0.84375 -0.0996,0.875 h 6.51562 c 1.74979,0 3.34046,0.0271 4.49219,0.0684 0.57587,0.0206 1.04198,0.0434 1.36133,0.0703 0.14671,0.0124 0.25384,0.0266 0.33203,0.0391 -0.003,0.006 -0.004,0.009 -0.008,0.0156 -0.0463,0.087 -0.1168,0.21215 -0.20703,0.36718 -0.18047,0.31007 -0.44223,0.74574 -0.76562,1.27344 -0.6468,1.05541 -1.53958,2.47996 -2.52149,4.01954 -0.9824,1.54036 -1.87579,2.94933 -2.52344,3.98047 -0.32382,0.51557 -0.5858,0.93705 -0.76757,1.23242 -0.0909,0.14769 -0.16245,0.26398 -0.21094,0.34571 -0.0242,0.0409 -0.0412,0.0734 -0.0547,0.0977 -0.007,0.0121 -0.0127,0.0213 -0.0176,0.0312 -0.002,0.005 -0.005,0.0103 -0.008,0.0176 -0.001,0.004 -0.004,0.009 -0.006,0.0156 -9.8e-4,0.003 -0.002,0.0114 -0.002,0.0117 -5e-5,2.6e-4 -0.002,0.0252 -0.002,0.0254 0,7.9e-4 0.0133,0.0598 0.0137,0.0605 3.7e-4,7.9e-4 0.0158,0.027 0.0234,0.0352 0.0153,0.0162 0.0272,0.0236 0.0371,0.0293 0.0199,0.0115 0.0345,0.016 0.0508,0.0215 0.0326,0.0109 0.0702,0.0194 0.11718,0.0293 0.0939,0.0197 0.22301,0.0416 0.38282,0.0645 0.31962,0.0457 0.7584,0.0956 1.24023,0.14062 3.15603,0.29472 6.05087,2.23531 7.2207,4.82227 0.73577,1.62695 0.73563,4.65414 -0.004,6.31641 -1.63708,3.67972 -5.44208,5.63827 -9.53906,4.90625 -2.87219,-0.5132 -4.93331,-2.16823 -5.81836,-4.66016 -0.20416,-0.57482 -0.37469,-1.1664 -0.56829,-1.3852 -0.1936,-0.2188 -0.44547,-0.2793 -0.76172,-0.2793 -0.17315,0 -0.30578,-1.4e-4 -0.42188,0.0234 -0.11609,0.0236 -0.23111,0.0935 -0.27734,0.20703 -0.0462,0.11352 -0.0436,0.29793 -0.0195,0.46178 0.0241,0.16386 0.10456,0.55845 0.16594,0.83163 0.37722,1.67887 0.93904,2.69987 2.18555,3.97265 1.45377,1.31185 3.05166,2.18994 5.06445,2.68359 0.65757,0.138 1.92345,0.18465 2.85938,0.11329 5.55807,-0.42393 9.56691,-4.74912 9.54101,-10.29493 -0.0125,-2.67781 -1.08577,-4.99651 -3.20312,-6.93164 -0.70967,-0.6486 -1.6487,-1.25889 -2.5625,-1.71093 -0.9138,-0.45205 -1.7958,-0.74805 -2.42969,-0.74805 -0.13487,0 -0.25748,-0.0136 -0.33789,-0.0312 -0.003,-5.3e-4 -0.003,-0.001 -0.006,-0.002 0.003,-0.005 0.005,-0.006 0.008,-0.0117 0.0439,-0.0754 0.10953,-0.18523 0.19336,-0.32228 0.16767,-0.27407 0.40744,-0.66072 0.69922,-1.125 0.58357,-0.92853 1.3717,-2.16771 2.18359,-3.4375 1.62379,-2.53957 3.354,-5.2142 3.7461,-5.76562 0.14403,-0.20256 0.27523,-0.41814 0.37109,-0.60547 0.0479,-0.0937 0.0867,-0.17905 0.11524,-0.25586 0.0285,-0.0768 0.0488,-0.13961 0.0488,-0.21094 0,-0.0823 -0.0585,-0.12907 -0.0957,-0.15039 -0.0372,-0.0213 -0.0744,-0.0333 -0.11915,-0.0449 -0.0896,-0.0233 -0.21,-0.0401 -0.36914,-0.0566 -0.31828,-0.033 -0.78988,-0.057 -1.42773,-0.0742 -1.2757,-0.0345 -3.21109,-0.0396 -5.86133,-0.0156 z"
         style="color:#000000;font-style:normal;font-variant:normal;font-weight:normal;font-stretch:normal;font-size:medium;line-height:normal;font-family:sans-serif;font-variant-ligatures:normal;font-variant-position:normal;font-variant-caps:normal;font-variant-numeric:normal;font-variant-alternates:normal;font-feature-settings:normal;text-indent:0;text-align:start;text-decoration:none;text-decoration-line:none;text-decoration-style:solid;text-decoration-color:#000000;letter-spacing:normal;word-spacing:normal;text-transform:none;writing-mode:lr-tb;direction:ltr;text-orientation:mixed;dominant-baseline:auto;baseline-shift:baseline;text-anchor:start;white-space:normal;shape-padding:0;clip-rule:nonzero;display:inline;overflow:visible;visibility:visible;opacity:1;isolation:auto;mix-blend-mode:normal;color-interpolation:sRGB;color-interpolation-filters:linearRGB;solid-color:#000000;solid-opacity:1;vector-effect:none;fill:#ffffff;fill-opacity:1;fill-rule:nonzero;stroke:none;stroke-width:0.26458338;stroke-linecap:butt;stroke-linejoin:miter;stroke-miterlimit:4;stroke-dasharray:none;stroke-dashoffset:0;stroke-opacity:1;color-rendering:auto;image-rendering:auto;shape-rendering:auto;text-rendering:auto;enable-background:accumulate"
         inkscape:connector-curvature="0" />
      <path
         inkscape:export-filename="C:\Users\ernes\OneDrive\Documents\3hc\proyectos\ciworkshop\3hc_logo_white.png"
         inkscape:export-ydpi="720"
         inkscape:export-xdpi="720"
         id="path847-1"
         d="m 108.77993,172.35802 v 15.30079 c 0,4.17202 0.0188,7.98537 0.0508,10.76758 0.016,1.3911 0.0355,2.52375 0.0566,3.3164 0.0106,0.39633 0.0216,0.70717 0.0332,0.92383 0.006,0.10833 0.0113,0.19393 0.0176,0.25586 0.003,0.031 0.008,0.0556 0.0117,0.0781 0.002,0.0112 0.004,0.0221 0.008,0.0352 0.002,0.007 0.005,0.0138 0.01,0.0234 0.002,0.005 0.004,0.009 0.008,0.0156 0.003,0.005 0.009,0.0124 0.0137,0.0176 0.002,0.002 0.006,0.006 0.006,0.006 0.0512,0.0512 0.10764,0.0752 0.17578,0.0996 0.0681,0.0244 0.14789,0.0456 0.23633,0.0625 0.17688,0.0339 0.38999,0.0547 0.60352,0.0547 h 0.87695 l 0.0703,-7.3418 0.0703,-7.08008 9.32422,-0.0684 9.32227,-0.0684 0.0684,7.08203 0.0723,7.34375 h 1.05664 1.0586 l 0.0684,-15.41211 0.0703,-15.41212 h -1.19336 -1.19336 v 7.27931 7.01367 l -9.32617,-0.0684 -9.32813,-0.0684 -0.0703,-6.94727 -0.0703,-7.20899 h -1.05273 z"
         style="color:#000000;font-style:normal;font-variant:normal;font-weight:normal;font-stretch:normal;font-size:medium;line-height:normal;font-family:sans-serif;font-variant-ligatures:normal;font-variant-position:normal;font-variant-caps:normal;font-variant-numeric:normal;font-variant-alternates:normal;font-feature-settings:normal;text-indent:0;text-align:start;text-decoration:none;text-decoration-line:none;text-decoration-style:solid;text-decoration-color:#000000;letter-spacing:normal;word-spacing:normal;text-transform:none;writing-mode:lr-tb;direction:ltr;text-orientation:mixed;dominant-baseline:auto;baseline-shift:baseline;text-anchor:start;white-space:normal;shape-padding:0;clip-rule:nonzero;display:inline;overflow:visible;visibility:visible;opacity:1;isolation:auto;mix-blend-mode:normal;color-interpolation:sRGB;color-interpolation-filters:linearRGB;solid-color:#000000;solid-opacity:1;vector-effect:none;fill:#ffffff;fill-opacity:1;fill-rule:nonzero;stroke:none;stroke-width:0.26458338;stroke-linecap:butt;stroke-linejoin:miter;stroke-miterlimit:4;stroke-dasharray:none;stroke-dashoffset:0;stroke-opacity:1;color-rendering:auto;image-rendering:auto;shape-rendering:auto;text-rendering:auto;enable-background:accumulate"
         inkscape:connector-curvature="0" />
      <path
         inkscape:export-filename="C:\Users\ernes\OneDrive\Documents\3hc\proyectos\ciworkshop\3hc_logo_white.png"
         inkscape:export-ydpi="720"
         inkscape:export-xdpi="720"
         sodipodi:nodetypes="csccccccccscccccccccscscscccc"
         id="path845-6"
         d="m 154.58229,172.39512 c -1.4908,-0.0952 -2.98506,0.0582 -4.39648,0.49414 -1.87667,0.57964 -4.44963,2.12899 -5.59571,3.3789 -1.51017,1.64703 -2.89686,3.97051 -3.61328,6.05861 -0.65174,1.8996 -0.86504,3.02003 -0.86498,5.37695 0,2.1543 0.22727,3.52045 0.7517,5.07031 1.92687,5.69459 5.92493,9.38691 11.125,10.25586 3.81816,0.63804 8.59674,-1.03196 11.7168,-4.07812 0.59731,-0.58316 1.23678,-1.37683 1.73047,-2.10156 0.24684,-0.36237 0.45705,-0.70708 0.60742,-1.00196 0.15037,-0.29487 0.24609,-0.52983 0.24609,-0.72656 0,-0.0725 -0.0473,-0.11551 -0.0781,-0.13673 -0.0308,-0.0212 -0.0577,-0.0324 -0.0899,-0.043 -0.0643,-0.0211 -0.14369,-0.0361 -0.23828,-0.0488 -0.18919,-0.0254 -0.44075,-0.0377 -0.71875,-0.0351 -0.44945,0.004 -0.75529,0.0404 -1.0293,0.23047 -0.24477,0.20759 -0.72516,0.95162 -1.15166,1.47757 -0.64139,0.82668 -2.96492,2.88439 -5.24782,3.77958 -2.20672,0.86533 -5.2645,0.79929 -7.20599,0.071 -5.66085,-2.1236 -9.00522,-8.25702 -8.05273,-14.80078 0.63721,-4.37777 2.88704,-7.73079 5.89063,-9.5547 3.00358,-1.8239 6.76037,-2.12364 10.44531,-0.3789 1.6685,0.78999 3.786,2.59344 4.59375,3.9004 0.24862,0.40227 0.43563,0.65294 0.69726,0.80078 0.26164,0.14784 0.56956,0.17578 1.03321,0.17578 h 1.27539 l -0.83008,-1.52734 c -2.0849,-3.83065 -6.52762,-6.35127 -11,-6.63673 z"
         style="color:#000000;font-style:normal;font-variant:normal;font-weight:normal;font-stretch:normal;font-size:medium;line-height:normal;font-family:sans-serif;font-variant-ligatures:normal;font-variant-position:normal;font-variant-caps:normal;font-variant-numeric:normal;font-variant-alternates:normal;font-feature-settings:normal;text-indent:0;text-align:start;text-decoration:none;text-decoration-line:none;text-decoration-style:solid;text-decoration-color:#000000;letter-spacing:normal;word-spacing:normal;text-transform:none;writing-mode:lr-tb;direction:ltr;text-orientation:mixed;dominant-baseline:auto;baseline-shift:baseline;text-anchor:start;white-space:normal;shape-padding:0;clip-rule:nonzero;display:inline;overflow:visible;visibility:visible;opacity:1;isolation:auto;mix-blend-mode:normal;color-interpolation:sRGB;color-interpolation-filters:linearRGB;solid-color:#000000;solid-opacity:1;vector-effect:none;fill:#ffffff;fill-opacity:1;fill-rule:nonzero;stroke:none;stroke-width:0.26458338;stroke-linecap:butt;stroke-linejoin:miter;stroke-miterlimit:4;stroke-dasharray:none;stroke-dashoffset:0;stroke-opacity:1;color-rendering:auto;image-rendering:auto;shape-rendering:auto;text-rendering:auto;enable-background:accumulate"
         inkscape:connector-curvature="0" />
    </g>
  </g>
</svg>
