<?xml version="1.0" encoding="UTF-8" standalone="no"?>
<!-- Created with Inkscape (http://www.inkscape.org/) -->

<svg
   xmlns:dc="http://purl.org/dc/elements/1.1/"
   xmlns:cc="http://creativecommons.org/ns#"
   xmlns:rdf="http://www.w3.org/1999/02/22-rdf-syntax-ns#"
   xmlns:svg="http://www.w3.org/2000/svg"
   xmlns="http://www.w3.org/2000/svg"
   xmlns:sodipodi="http://sodipodi.sourceforge.net/DTD/sodipodi-0.dtd"
   xmlns:inkscape="http://www.inkscape.org/namespaces/inkscape"
   width="256"
   height="256"
   viewBox="0 0 67.733333 67.733335"
   version="1.1"
   id="svg8"
   inkscape:version="0.92.3 (2405546, 2018-03-11)"
   sodipodi:docname="linkedin.svg">
  <defs
     id="defs2">
	
</defs>
  <sodipodi:namedview
     id="base"
     pagecolor="#ffffff"
     bordercolor="#666666"
     borderopacity="1.0"
     inkscape:pageopacity="0.0"
     inkscape:pageshadow="2"
     inkscape:zoom="1.979899"
     inkscape:cx="64.373573"
     inkscape:cy="107.47031"
     inkscape:document-units="mm"
     inkscape:current-layer="layer2"
     showgrid="false"
     units="px"
     inkscape:window-width="1920"
     inkscape:window-height="1017"
     inkscape:window-x="-8"
     inkscape:window-y="-8"
     inkscape:window-maximized="1" />
  <metadata
     id="metadata5">
    <rdf:RDF>
      <cc:Work
         rdf:about="">
        <dc:format>image/svg+xml</dc:format>
        <dc:type
           rdf:resource="http://purl.org/dc/dcmitype/StillImage" />
        <dc:title></dc:title>
      </cc:Work>
    </rdf:RDF>
  </metadata>
  <g
     inkscape:label="Capa 1"
     inkscape:groupmode="layer"
     id="layer1"
     transform="translate(0,-229.26663)"
     style="display:inline" />
  <g
     inkscape:groupmode="layer"
     id="layer2"
     inkscape:label="Capa 2">
    <path
       d="M 64.346667,40.454792 V 62.992093 H 51.280965 V 41.964205 c 0,-5.282378 -1.889813,-8.887393 -6.619164,-8.887393 -3.61026,0 -5.758728,2.429516 -6.703918,4.779664 -0.344684,0.840169 -0.433407,2.009574 -0.433407,3.18564 V 62.992093 H 24.454381 c 0,0 0.176027,-35.614341 0,-39.304253 h 13.06882 v 5.571221 0 c 0,0 4.837207,-6.494584 11.777953,-6.494584 8.599117,-1.42e-4 15.045513,5.617566 15.045513,17.690315 z M 10.782504,4.7412401 c -4.4712623,0 -7.3958377,2.9327957 -7.3958377,6.7895219 0,3.772681 2.8399633,6.794483 7.2223617,6.794483 h 0.0873 c 4.557859,0 7.392437,-3.021235 7.392437,-6.794483 C 18.002882,7.6740358 15.254192,4.7412401 10.782504,4.7412401 Z M 4.1629154,62.992093 H 17.22805 V 23.68784 H 4.1629154 Z"
       id="LinkedIn"
       inkscape:connector-curvature="0"
       style="fill:none;stroke:#fffffe;stroke-width:1.58749998;stroke-linecap:butt;stroke-linejoin:miter;stroke-miterlimit:4;stroke-dasharray:none;stroke-opacity:1;paint-order:stroke fill markers"
       sodipodi:nodetypes="sccsscscccccccssssscsccccc" />
    <g
       id="g933"
       transform="matrix(0.14172888,0,0,0.14172888,3.3866663,3.3865955)">
</g>
    <g
       id="g935"
       transform="matrix(0.14172888,0,0,0.14172888,3.3866663,3.3865955)">
</g>
    <g
       id="g937"
       transform="matrix(0.14172888,0,0,0.14172888,3.3866663,3.3865955)">
</g>
    <g
       id="g939"
       transform="matrix(0.14172888,0,0,0.14172888,3.3866663,3.3865955)">
</g>
    <g
       id="g941"
       transform="matrix(0.14172888,0,0,0.14172888,3.3866663,3.3865955)">
</g>
    <g
       id="g943"
       transform="matrix(0.14172888,0,0,0.14172888,3.3866663,3.3865955)">
</g>
    <g
       id="g945"
       transform="matrix(0.14172888,0,0,0.14172888,3.3866663,3.3865955)">
</g>
    <g
       id="g947"
       transform="matrix(0.14172888,0,0,0.14172888,3.3866663,3.3865955)">
</g>
    <g
       id="g949"
       transform="matrix(0.14172888,0,0,0.14172888,3.3866663,3.3865955)">
</g>
    <g
       id="g951"
       transform="matrix(0.14172888,0,0,0.14172888,3.3866663,3.3865955)">
</g>
    <g
       id="g953"
       transform="matrix(0.14172888,0,0,0.14172888,3.3866663,3.3865955)">
</g>
    <g
       id="g955"
       transform="matrix(0.14172888,0,0,0.14172888,3.3866663,3.3865955)">
</g>
    <g
       id="g957"
       transform="matrix(0.14172888,0,0,0.14172888,3.3866663,3.3865955)">
</g>
    <g
       id="g959"
       transform="matrix(0.14172888,0,0,0.14172888,3.3866663,3.3865955)">
</g>
    <g
       id="g961"
       transform="matrix(0.14172888,0,0,0.14172888,3.3866663,3.3865955)">
</g>
  </g>
</svg>
