<?xml version="1.0" encoding="UTF-8" standalone="no"?>
<!-- Created with Inkscape (http://www.inkscape.org/) -->

<svg
   xmlns:dc="http://purl.org/dc/elements/1.1/"
   xmlns:cc="http://creativecommons.org/ns#"
   xmlns:rdf="http://www.w3.org/1999/02/22-rdf-syntax-ns#"
   xmlns:svg="http://www.w3.org/2000/svg"
   xmlns="http://www.w3.org/2000/svg"
   xmlns:sodipodi="http://sodipodi.sourceforge.net/DTD/sodipodi-0.dtd"
   xmlns:inkscape="http://www.inkscape.org/namespaces/inkscape"
   width="256"
   height="114.84389"
   viewBox="0 0 67.733333 30.385781"
   version="1.1"
   id="svg8"
   inkscape:version="0.92.3 (2405546, 2018-03-11)"
   sodipodi:docname="logo-3hc-white.svg">
  <defs
     id="defs2" />
  <sodipodi:namedview
     id="base"
     pagecolor="#ffffff"
     bordercolor="#666666"
     borderopacity="1.0"
     inkscape:pageopacity="0.0"
     inkscape:pageshadow="2"
     inkscape:zoom="1.979899"
     inkscape:cx="-35.126452"
     inkscape:cy="36.892258"
     inkscape:document-units="mm"
     inkscape:current-layer="layer2"
     showgrid="false"
     units="px"
     inkscape:window-width="1920"
     inkscape:window-height="1017"
     inkscape:window-x="1912"
     inkscape:window-y="-8"
     inkscape:window-maximized="1"
     fit-margin-top="0"
     fit-margin-left="0"
     fit-margin-right="0"
     fit-margin-bottom="0" />
  <metadata
     id="metadata5">
    <rdf:RDF>
      <cc:Work
         rdf:about="">
        <dc:format>image/svg+xml</dc:format>
        <dc:type
           rdf:resource="http://purl.org/dc/dcmitype/StillImage" />
        <dc:title />
      </cc:Work>
    </rdf:RDF>
  </metadata>
  <g
     inkscape:label="Capa 1"
     inkscape:groupmode="layer"
     id="layer1"
     transform="translate(-1.1827088e-7,-247.94041)"
     style="display:inline" />
  <g
     inkscape:groupmode="layer"
     id="layer2"
     inkscape:label="Capa 2"
     transform="translate(-1.1827088e-7,-18.673777)">
    <g
       id="g933"
       transform="matrix(0.14172888,0,0,0.14172888,3.3866663,3.3865955)" />
    <g
       id="g935"
       transform="matrix(0.14172888,0,0,0.14172888,3.3866663,3.3865955)" />
    <g
       id="g937"
       transform="matrix(0.14172888,0,0,0.14172888,3.3866663,3.3865955)" />
    <g
       id="g939"
       transform="matrix(0.14172888,0,0,0.14172888,3.3866663,3.3865955)" />
    <g
       id="g941"
       transform="matrix(0.14172888,0,0,0.14172888,3.3866663,3.3865955)" />
    <g
       id="g943"
       transform="matrix(0.14172888,0,0,0.14172888,3.3866663,3.3865955)" />
    <g
       id="g945"
       transform="matrix(0.14172888,0,0,0.14172888,3.3866663,3.3865955)" />
    <g
       id="g947"
       transform="matrix(0.14172888,0,0,0.14172888,3.3866663,3.3865955)" />
    <g
       id="g949"
       transform="matrix(0.14172888,0,0,0.14172888,3.3866663,3.3865955)" />
    <g
       id="g951"
       transform="matrix(0.14172888,0,0,0.14172888,3.3866663,3.3865955)" />
    <g
       id="g953"
       transform="matrix(0.14172888,0,0,0.14172888,3.3866663,3.3865955)" />
    <g
       id="g955"
       transform="matrix(0.14172888,0,0,0.14172888,3.3866663,3.3865955)" />
    <g
       id="g957"
       transform="matrix(0.14172888,0,0,0.14172888,3.3866663,3.3865955)" />
    <g
       id="g959"
       transform="matrix(0.14172888,0,0,0.14172888,3.3866663,3.3865955)" />
    <g
       id="g961"
       transform="matrix(0.14172888,0,0,0.14172888,3.3866663,3.3865955)" />
    <g
       style="display:inline"
       id="g6739"
       transform="matrix(0.40539726,0,0,0.40539726,-27.885231,-9.4348261)"
       inkscape:export-xdpi="1875.8524"
       inkscape:export-ydpi="1875.8524">
      <g
         aria-label="3"
         style="font-style:normal;font-variant:normal;font-weight:normal;font-stretch:normal;font-size:101.25589752px;line-height:125%;font-family:'Arial Rounded MT Bold';-inkscape-font-specification:'Arial Rounded MT Bold, Normal';font-variant-ligatures:normal;font-variant-caps:normal;font-variant-numeric:normal;font-feature-settings:normal;text-align:start;letter-spacing:0px;word-spacing:0px;writing-mode:lr-tb;text-anchor:start;display:inline;fill:#ffffff;fill-opacity:1;stroke:none;stroke-width:1.35610592px;stroke-linecap:butt;stroke-linejoin:miter;stroke-opacity:1"
         id="text4785-3-9-2">
        <path
           d="m 91.577417,99.264709 q 4.548605,0 7.811735,-2.669833 3.312568,-2.669833 3.312568,-7.66341 0,-3.806985 -2.62039,-6.526259 -2.620391,-2.768716 -7.070113,-2.768716 -3.015923,0 -4.993577,0.840503 -1.928213,0.840503 -3.065364,2.224861 -1.137152,1.384358 -2.17542,3.559778 -0.988827,2.175419 -1.82933,4.103632 -0.494414,1.038269 -1.779889,1.631565 -1.285475,0.593296 -2.966481,0.593296 -1.977655,0 -3.658661,-1.582123 -1.631565,-1.631565 -1.631565,-4.301398 0,-2.570951 1.532682,-5.389108 1.582124,-2.867599 4.548605,-5.438549 3.015923,-2.570951 7.465645,-4.103633 4.449722,-1.582123 9.937713,-1.582123 4.795811,0 8.751115,1.334916 3.95531,1.285476 6.87235,3.757543 2.91704,2.472068 4.40028,5.735198 1.48324,3.263129 1.48324,7.020672 0,4.944136 -2.17542,8.503914 -2.12597,3.510335 -6.13072,6.872345 3.85642,2.07654 6.47681,4.74637 2.66984,2.66984 4.00475,5.93297 1.33492,3.21368 1.33492,6.97123 0,4.49916 -1.82933,8.70168 -1.77989,4.20251 -5.29022,7.51508 -3.51034,3.26313 -8.35559,5.1419 -4.795815,1.82933 -10.629895,1.82933 -5.932963,0 -10.629892,-2.12597 -4.696929,-2.12598 -7.762293,-5.29023 -3.015922,-3.21369 -4.598046,-6.62514 -1.532682,-3.41146 -1.532682,-5.63632 0,-2.8676 1.82933,-4.59804 1.878772,-1.77989 4.647488,-1.77989 1.384358,0 2.669833,0.8405 1.285475,0.79106 1.681006,1.92821 2.570951,6.87235 5.487991,10.23437 2.966481,3.31257 8.306148,3.31257 3.065364,0 5.883521,-1.48324 2.867601,-1.53269 4.696931,-4.49917 1.87877,-2.96648 1.87877,-6.87235 0,-5.78464 -3.16425,-9.04776 -3.164244,-3.31258 -8.800559,-3.31258 -0.988827,0 -3.065364,0.19777 -2.076537,0.19777 -2.669833,0.19777 -2.719275,0 -4.202516,-1.33492 -1.48324,-1.38436 -1.48324,-3.80699 0,-2.37318 1.779889,-3.80698 1.779888,-1.483241 5.290225,-1.483241 z"
           style="fill:#ffffff;fill-opacity:1;stroke-width:1.35610592px"
           id="path840" />
      </g>
      <g
         aria-label="h"
         style="font-style:normal;font-variant:normal;font-weight:normal;font-stretch:normal;font-size:101.25589752px;line-height:125%;font-family:'Arial Rounded MT Bold';-inkscape-font-specification:'Arial Rounded MT Bold, Normal';font-variant-ligatures:normal;font-variant-caps:normal;font-variant-numeric:normal;font-feature-settings:normal;text-align:start;letter-spacing:0px;word-spacing:0px;writing-mode:lr-tb;text-anchor:start;display:inline;fill:#ffffff;fill-opacity:1;stroke:none;stroke-width:1.35610592px;stroke-linecap:butt;stroke-linejoin:miter;stroke-opacity:1"
         id="text4789-2-0-54">
        <path
           d="m 140.9379,77.543212 v 20.023749 q 2.57095,-2.966481 4.99357,-4.696929 2.47207,-1.730447 5.43855,-2.57095 2.96648,-0.889944 6.37794,-0.889944 5.1419,0 9.09721,2.175419 4.00475,2.17542 6.27905,6.328494 1.4338,2.422629 1.92821,5.438549 0.49442,2.96648 0.49442,6.87235 v 25.85783 q 0,4.05419 -1.87878,6.13073 -1.82933,2.07653 -4.89469,2.07653 -6.67458,0 -6.67458,-8.20726 v -22.79247 q 0,-6.47682 -1.92822,-9.93771 -1.92821,-3.510336 -7.31732,-3.510336 -3.60922,0 -6.52626,2.076536 -2.86759,2.0271 -4.30139,5.58687 -1.08771,3.01593 -1.08771,10.72878 v 17.84833 q 0,4.00475 -1.82933,6.13073 -1.77989,2.07653 -4.99358,2.07653 -6.67458,0 -6.67458,-8.20726 V 77.543212 q 0,-4.103633 1.73044,-6.130728 1.77989,-2.076537 4.94414,-2.076537 3.21369,0 4.99358,2.076537 1.82933,2.076537 1.82933,6.130728 z"
           style="fill:#ffffff;fill-opacity:1;stroke-width:1.35610592px"
           id="path843" />
      </g>
      <g
         aria-label="c"
         style="font-style:normal;font-variant:normal;font-weight:normal;font-stretch:normal;font-size:101.25589752px;line-height:125%;font-family:'Arial Rounded MT Bold';-inkscape-font-specification:'Arial Rounded MT Bold, Normal';font-variant-ligatures:normal;font-variant-caps:normal;font-variant-numeric:normal;font-feature-settings:normal;text-align:start;letter-spacing:0px;word-spacing:0px;writing-mode:lr-tb;text-anchor:start;display:inline;fill:#ffffff;fill-opacity:1;stroke:none;stroke-width:14.91716385;stroke-linecap:butt;stroke-linejoin:miter;stroke-miterlimit:4;stroke-dasharray:none;stroke-opacity:1"
         id="text4793-3-1-6">
        <path
           d="m 234.4,127.57645 q 0,2.5215 -1.53268,5.3891 -1.48324,2.8676 -4.59805,5.48799 -3.06536,2.57095 -7.76229,4.15308 -4.69693,1.58212 -10.58045,1.58212 -12.50866,0 -19.52934,-7.26788 -7.02067,-7.31732 -7.02067,-19.57878 0,-8.30614 3.21369,-14.68408 3.21369,-6.377933 9.29497,-9.838828 6.08129,-3.510336 14.53576,-3.510336 5.24079,0 9.59162,1.532682 4.40029,1.532682 7.41621,3.955308 3.06536,2.422627 4.64749,5.191343 1.63156,2.719271 1.63156,5.092461 0,2.42262 -1.82933,4.10363 -1.77989,1.68101 -4.35084,1.68101 -1.68101,0 -2.81816,-0.84051 -1.08771,-0.88994 -2.47206,-2.81815 -2.47207,-3.75755 -5.19135,-5.63632 -2.66983,-1.878769 -6.8229,-1.878769 -5.98241,0 -9.64107,4.696929 -3.65866,4.64749 -3.65866,12.75587 0,3.80698 0.93939,7.02067 0.93938,3.16425 2.71927,5.43855 1.77989,2.22486 4.3014,3.41145 2.52151,1.13716 5.53743,1.13716 4.05419,0 6.92179,-1.87878 2.91704,-1.87877 5.1419,-5.73519 1.23604,-2.27431 2.66984,-3.55978 1.4338,-1.28548 3.51033,-1.28548 2.47207,0 4.10363,1.87878 1.63157,1.87877 1.63157,4.00475 z"
           style="fill:#ffffff;fill-opacity:1;stroke:none;stroke-width:14.91716385;stroke-miterlimit:4;stroke-dasharray:none;stroke-opacity:1"
           id="path846" />
      </g>
      <path
         inkscape:export-ydpi="1875.8524"
         inkscape:export-xdpi="1875.8524"
         sodipodi:nodetypes="ccc"
         inkscape:connector-curvature="0"
         style="display:inline;fill:#ffffff;fill-opacity:1;stroke-width:1.35610592"
         id="path23-7-6-7"
         d="m 232.66085,89.732945 c 0,0 14.53554,-31.760281 -18.32283,-7.336511 -0.007,0 9.61635,-0.17177 18.32283,7.336511 z"
         class="cls-4" />
      <path
         inkscape:export-ydpi="1875.8524"
         inkscape:export-xdpi="1875.8524"
         sodipodi:nodetypes="ccc"
         inkscape:connector-curvature="0"
         style="display:inline;fill:#ffffff;fill-opacity:1;stroke-width:1.35610592"
         id="path25-4-4-6"
         d="m 198.72575,83.513394 c -36.73043,-15.84942 -15.81281,10.90462 -15.81281,10.90462 5.30159,-9.13173 15.81281,-10.90462 15.81281,-10.90462 z"
         class="cls-5" />
    </g>
  </g>
</svg>
