<?xml version="1.0" encoding="UTF-8" standalone="no"?>
<svg
   xmlns:dc="http://purl.org/dc/elements/1.1/"
   xmlns:cc="http://creativecommons.org/ns#"
   xmlns:rdf="http://www.w3.org/1999/02/22-rdf-syntax-ns#"
   xmlns:svg="http://www.w3.org/2000/svg"
   xmlns="http://www.w3.org/2000/svg"
   xmlns:sodipodi="http://sodipodi.sourceforge.net/DTD/sodipodi-0.dtd"
   xmlns:inkscape="http://www.inkscape.org/namespaces/inkscape"
   width="256"
   height="256"
   viewBox="0 0 256 256"
   version="1.1"
   id="svg4"
   sodipodi:docname="github.svg"
   style="fill:none"
   inkscape:version="0.92.4 (f8dce91, 2019-08-02)">
  <metadata
     id="metadata10">
    <rdf:RDF>
      <cc:Work
         rdf:about="">
        <dc:format>image/svg+xml</dc:format>
        <dc:type
           rdf:resource="http://purl.org/dc/dcmitype/StillImage" />
        <dc:title />
      </cc:Work>
    </rdf:RDF>
  </metadata>
  <defs
     id="defs8" />
  <sodipodi:namedview
     pagecolor="#ffffff"
     bordercolor="#666666"
     borderopacity="1"
     objecttolerance="10"
     gridtolerance="10"
     guidetolerance="10"
     inkscape:pageopacity="0"
     inkscape:pageshadow="2"
     inkscape:window-width="1853"
     inkscape:window-height="1025"
     id="namedview6"
     showgrid="false"
     fit-margin-top="0"
     fit-margin-left="0"
     fit-margin-right="0"
     fit-margin-bottom="0"
     inkscape:zoom="2.6074563"
     inkscape:cx="75.276435"
     inkscape:cy="93.135523"
     inkscape:window-x="67"
     inkscape:window-y="27"
     inkscape:window-maximized="1"
     inkscape:current-layer="svg4" />
  <path
     d="m 128,6.9522021 c -68.576969,0 -124.1212111,55.5442419 -124.1212111,124.1212179 0,54.92364 35.5296971,101.31394 84.8678791,117.76 6.20606,1.08606 8.533333,-2.63757 8.533333,-5.89576 0,-2.94787 -0.155152,-12.72242 -0.155152,-23.11757 -31.185454,5.7406 -39.253333,-7.60243 -41.735757,-14.58424 -1.396364,-3.56849 -7.447273,-14.58425 -12.722424,-17.53213 -4.344243,-2.32727 -10.550303,-8.06787 -0.155152,-8.22303 9.774546,-0.15515 16.756364,8.99879 19.083637,12.72243 11.170909,18.77333 29.013333,13.49818 36.150303,10.24 1.08606,-8.06788 4.344244,-13.49818 7.912724,-16.60121 -27.616967,-3.10303 -56.475149,-13.80849 -56.475149,-61.28485 0,-13.49818 4.809697,-24.669105 12.722425,-33.357586 -1.241213,-3.10303 -5.585455,-15.825454 1.241212,-32.892121 0,0 10.395151,-3.258182 34.133333,12.722424 C 107.2097,68.23705 117.76,66.840686 128.3103,66.840686 c 10.55031,0 21.10061,1.396364 31.03031,4.189091 23.73818,-16.135757 34.13333,-12.722424 34.13333,-12.722424 6.82667,17.066667 2.48242,29.789091 1.24121,32.892121 7.91273,8.688481 12.72243,19.704246 12.72243,33.357586 0,47.63151 -29.01334,58.18182 -56.63031,61.28485 4.4994,3.87878 8.37818,11.32606 8.37818,22.96242 0,16.60121 -0.15515,29.94424 -0.15515,34.13333 0,3.25819 2.32728,7.13697 8.53334,5.89576 49.02788,-16.44606 84.55757,-62.99151 84.55757,-117.76 C 252.12121,62.496444 196.57697,6.9522021 128,6.9522021 Z"
     id="path2"
     inkscape:connector-curvature="0"
     style="clip-rule:evenodd;fill:none;fill-opacity:1;fill-rule:evenodd;stroke:#fffffa;stroke-width:6;stroke-miterlimit:4;stroke-dasharray:none;stroke-opacity:1" />
</svg>
