<?xml version="1.0" encoding="UTF-8" standalone="no"?>
<!-- Generator: Adobe Illustrator 16.0.0, SVG Export Plug-In . SVG Version: 6.00 Build 0)  -->

<svg
   xmlns:dc="http://purl.org/dc/elements/1.1/"
   xmlns:cc="http://creativecommons.org/ns#"
   xmlns:rdf="http://www.w3.org/1999/02/22-rdf-syntax-ns#"
   xmlns:svg="http://www.w3.org/2000/svg"
   xmlns="http://www.w3.org/2000/svg"
   xmlns:sodipodi="http://sodipodi.sourceforge.net/DTD/sodipodi-0.dtd"
   xmlns:inkscape="http://www.inkscape.org/namespaces/inkscape"
   version="1.1"
   id="Capa_1"
   x="0px"
   y="0px"
   width="256"
   height="256.00116"
   viewBox="0 0 256 256.00116"
   xml:space="preserve"
   sodipodi:docname="content.svg"
   inkscape:version="0.92.3 (2405546, 2018-03-11)"><metadata
   id="metadata49"><rdf:RDF><cc:Work
       rdf:about=""><dc:format>image/svg+xml</dc:format><dc:type
         rdf:resource="http://purl.org/dc/dcmitype/StillImage" /><dc:title></dc:title></cc:Work></rdf:RDF></metadata><defs
   id="defs47">
	

		
		
		
		
	</defs><sodipodi:namedview
   pagecolor="#ffffff"
   bordercolor="#666666"
   borderopacity="1"
   objecttolerance="10"
   gridtolerance="10"
   guidetolerance="10"
   inkscape:pageopacity="0"
   inkscape:pageshadow="2"
   inkscape:window-width="1920"
   inkscape:window-height="1017"
   id="namedview45"
   showgrid="false"
   fit-margin-top="0"
   fit-margin-left="0"
   fit-margin-right="0"
   fit-margin-bottom="0"
   inkscape:zoom="1.1053255"
   inkscape:cx="61.058962"
   inkscape:cy="116.21179"
   inkscape:window-x="-8"
   inkscape:window-y="-8"
   inkscape:window-maximized="1"
   inkscape:current-layer="layer2" />

<g
   id="g14"
   transform="translate(4.2723404,-186.8052)">
</g>
<g
   id="g16"
   transform="translate(4.2723404,-186.8052)">
</g>
<g
   id="g18"
   transform="translate(4.2723404,-186.8052)">
</g>
<g
   id="g20"
   transform="translate(4.2723404,-186.8052)">
</g>
<g
   id="g22"
   transform="translate(4.2723404,-186.8052)">
</g>
<g
   id="g24"
   transform="translate(4.2723404,-186.8052)">
</g>
<g
   id="g26"
   transform="translate(4.2723404,-186.8052)">
</g>
<g
   id="g28"
   transform="translate(4.2723404,-186.8052)">
</g>
<g
   id="g30"
   transform="translate(4.2723404,-186.8052)">
</g>
<g
   id="g32"
   transform="translate(4.2723404,-186.8052)">
</g>
<g
   id="g34"
   transform="translate(4.2723404,-186.8052)">
</g>
<g
   id="g36"
   transform="translate(4.2723404,-186.8052)">
</g>
<g
   id="g38"
   transform="translate(4.2723404,-186.8052)">
</g>
<g
   id="g40"
   transform="translate(4.2723404,-186.8052)">
</g>
<g
   id="g42"
   transform="translate(4.2723404,-186.8052)">
</g>
<g
   inkscape:groupmode="layer"
   id="layer1"
   inkscape:label="Layer 1"
   style="display:inline"
   transform="translate(4.2723404,-186.8052)" /><g
   inkscape:groupmode="layer"
   id="layer2"
   inkscape:label="Layer 2"
   transform="translate(4.2723404,-186.8052)"><g
     id="g890"
     transform="translate(25.600001,-25.6001)"><path
       sodipodi:nodetypes="ccsccsccscccc"
       style="display:inline;fill:none;stroke:#000000;stroke-width:4.75275707;stroke-miterlimit:4;stroke-dasharray:none;stroke-opacity:1"
       inkscape:connector-curvature="0"
       id="path2"
       d="m 184.7402,290.19747 c -8.94468,-15.32383 -21.07756,-27.45671 -36.40184,-36.40094 -15.32702,-8.94376 -32.05859,-13.41473 -50.207508,-13.41473 -18.147088,0 -34.883685,4.47097 -50.207965,13.41473 -15.325192,8.94286 -27.458073,21.07574 -36.402749,36.40094 -8.9451308,15.3261 -13.4160999,32.06269 -13.4160999,50.20841 0,18.14664 4.4723377,34.8805 13.4147319,50.20752 8.94422,15.32382 21.0771,27.4567 36.402292,36.40183 15.326105,8.94331 32.061334,13.41473 50.207966,13.41473 18.146632,0 34.883692,-4.47142 50.208882,-13.41473 15.32428,-8.94194 27.4567,-21.07801 36.40046,-36.40183 8.94239,-15.32565 13.41291,-32.0618 13.41291,-50.20752 4.6e-4,-18.14754 -4.47052,-34.8846 -13.41108,-50.20841 z" /><g
       transform="matrix(0.79212614,0,0,0.79212614,-1.60612,92.047863)"
       id="g879"
       style="display:inline"><path
         d="m 87.437377,284.34523 c 4.059768,0 7.527378,-1.43955 10.400818,-4.31097 2.873845,-2.87223 4.310565,-6.33984 4.310565,-10.40082 0,-4.06138 -1.43672,-7.52738 -4.310565,-10.40082 -2.873843,-2.87344 -6.34105,-4.31096 -10.400818,-4.31096 -4.060976,0 -7.528587,1.43752 -10.402025,4.31096 -2.872232,2.87385 -4.310159,6.33984 -4.310159,10.40082 0,4.06098 1.436317,7.52859 4.310159,10.40082 2.874646,2.87263 6.341049,4.31097 10.402025,4.31097 z"
         id="path6"
         inkscape:connector-curvature="0"
         style="fill:#000000;fill-opacity:1;stroke:#000000;stroke-width:4.19410896;stroke-miterlimit:4;stroke-dasharray:none;stroke-opacity:1" /><path
         d="m 164.37631,254.92086 c -4.06138,0 -7.5302,1.43752 -10.40404,4.31096 -2.87103,2.87384 -4.31057,6.33984 -4.31057,10.40081 0,4.06098 1.43954,7.52859 4.31057,10.40082 2.87384,2.87304 6.34266,4.31097 10.40404,4.31097 4.05815,0 7.52698,-1.43953 10.40082,-4.31097 2.87383,-2.87223 4.31055,-6.33984 4.31055,-10.40082 0,-4.06138 -1.43672,-7.52737 -4.31055,-10.40081 -2.87384,-2.87344 -6.34267,-4.31096 -10.40082,-4.31096 z"
         id="path8"
         inkscape:connector-curvature="0"
         style="fill:#000000;fill-opacity:1;stroke:#000000;stroke-width:4.19410896;stroke-miterlimit:4;stroke-dasharray:none;stroke-opacity:1" /></g><path
       sodipodi:nodetypes="cc"
       inkscape:connector-curvature="0"
       id="path871"
       d="m 56.417429,351.61842 c 26.877599,5.57527 54.632081,5.88927 83.420441,0"
       style="fill:none;stroke:#000000;stroke-width:4.75275707;stroke-linecap:round;stroke-linejoin:miter;stroke-miterlimit:4;stroke-dasharray:none;stroke-opacity:1" /></g></g></svg>